<?xml version="1.0" encoding="UTF-8" standalone="no"?>
<!-- Created with Inkscape (http://www.inkscape.org/) -->

<svg
   xmlns:dc="http://purl.org/dc/elements/1.1/"
   xmlns:cc="http://creativecommons.org/ns#"
   xmlns:rdf="http://www.w3.org/1999/02/22-rdf-syntax-ns#"
   xmlns:svg="http://www.w3.org/2000/svg"
   xmlns="http://www.w3.org/2000/svg"
   xmlns:sodipodi="http://sodipodi.sourceforge.net/DTD/sodipodi-0.dtd"
   xmlns:inkscape="http://www.inkscape.org/namespaces/inkscape"
   width="17mm"
   height="17mm"
   viewBox="0 0 17 17"
   version="1.1"
   id="svg8"
   inkscape:version="0.92.4 5da689c313, 2019-01-14"
   sodipodi:docname="logo.svg"
   inkscape:export-filename="/home/schiessl/Documents/BlockChainProjects/Design/sschiessl/sschiessl_avatar_sketched_white.png"
   inkscape:export-xdpi="1199.7765"
   inkscape:export-ydpi="1199.7765">
  <defs
     id="defs2" />
  <sodipodi:namedview
     id="base"
     pagecolor="#ffffff"
     bordercolor="#666666"
     borderopacity="1.0"
     inkscape:pageopacity="0.0"
     inkscape:pageshadow="2"
     inkscape:zoom="7.9195959"
     inkscape:cx="22.620865"
     inkscape:cy="33.08114"
     inkscape:document-units="mm"
     inkscape:current-layer="layer1"
     showgrid="false"
     inkscape:window-width="2560"
     inkscape:window-height="1023"
     inkscape:window-x="0"
     inkscape:window-y="0"
     inkscape:window-maximized="1" />
  <metadata
     id="metadata5">
    <rdf:RDF>
      <cc:Work
         rdf:about="">
        <dc:format>image/svg+xml</dc:format>
        <dc:type
           rdf:resource="http://purl.org/dc/dcmitype/StillImage" />
        <dc:title></dc:title>
      </cc:Work>
    </rdf:RDF>
  </metadata>
  <g
     inkscape:label="Layer 1"
     inkscape:groupmode="layer"
     id="layer1"
     transform="translate(0,-280)">
    <path
       inkscape:connector-curvature="0"
       id="path836"
       d="m 6.9024535,295.46121 c -0.418843,-0.0945 -1.069534,-0.335 -1.566333,-0.579 -1.441376,-0.70793 -2.476373,-1.74245 -3.183687,-3.1822 -1.0113741,-2.05869 -1.0114091,-4.2908 -9.7e-5,-6.34984 0.706326,-1.43809 1.742151,-2.47388 3.180689,-3.18059 3.566373,-1.75206 7.8021035,-0.33849 9.5305245,3.18059 1.751841,3.56676 0.338343,7.80212 -3.18069,9.53052 -1.502946,0.73819 -3.1789725,0.94172 -4.7804065,0.58052 z m 3.5104895,-0.781 c 1.156115,-0.40616 1.766938,-0.76602 2.520906,-1.48518 0.855659,-0.81616 1.338456,-1.59594 1.76433,-2.84961 0.175491,-0.5166 0.201331,-0.75023 0.201331,-1.82033 0,-1.33496 -0.10424,-1.80399 -0.647184,-2.91203 -0.628389,-1.28241 -1.870035,-2.45596 -3.162049,-2.98862 -1.0914235,-0.44997 -1.3062885,-0.49081 -2.5823335,-0.49081 -1.276044,0 -1.49091,0.0408 -2.582333,0.49081 -1.292016,0.53266 -2.533662,1.70621 -3.16205,2.98862 -0.542944,1.10804 -0.6471841,1.57707 -0.6471841,2.91203 0,1.0701 0.02584,1.30373 0.2013301,1.82033 0.772774,2.27486 2.196258,3.67711 4.454571,4.38814 0.623628,0.19634 0.825962,0.215 1.989666,0.18351 0.856603,-0.0232 1.171303,-0.0683 1.6509995,-0.23686 z m -6.0469835,-3.93262 -0.938693,-0.99484 0.02151,-2.159 0.02151,-2.159 0.594237,-0.0245 0.594238,-0.0245 2.312928,2.37398 2.312928,2.37398 0.606501,0.002 0.6065005,0.002 0.613833,0.66817 c 0.337608,0.3675 0.613833,0.70535 0.613833,0.75078 0,0.15419 -0.265726,0.1854 -1.578436,0.1854 H 8.8362635 l -2.065559,-2.0955 -2.065559,-2.0955 -0.0036,0.72211 -0.0036,0.72212 0.531445,0.52672 0.531444,0.52672 h 0.557823 0.557823 l 0.667566,0.68117 c 0.367161,0.37465 0.681735,0.72196 0.699052,0.7718 0.06619,0.19049 -0.244503,0.23781 -1.569632,0.23906 l -1.368812,10e-4 z m 5.7003585,-1.3711 -2.2780405,-2.37282 -0.594653,-10e-4 -0.594653,-0.001 -0.668557,-0.6725 C 5.0190285,285.4124 5.0383035,285.393 6.8604165,285.393 h 1.379739 l 1.643326,1.7145 c 0.9038285,0.94298 1.8204475,1.905 2.0369305,2.13783 l 0.393605,0.42334 0.002,-0.76427 0.002,-0.76427 -0.573625,-0.56923 -0.573624,-0.56923 H 10.571124 9.9714795 l -0.613421,-0.67936 c -0.83021,-0.91944 -0.819973,-0.92931 0.9638975,-0.92931 h 1.36987 l 0.94956,1.01087 0.949561,1.01087 -0.02263,2.14297 -0.02263,2.14296 -0.600626,0.0246 -0.600625,0.0246 z m -1.9430345,-0.7879 -1.26634,-1.29117 0.381,-0.0282 0.381,-0.0282 1.203544,1.25588 c 0.661948,0.69073 1.2048725,1.28445 1.2064995,1.31937 0.0016,0.0349 -0.1415645,0.0635 -0.3182035,0.0635 -0.302371,0 -0.395249,-0.0755 -1.5875,-1.29116 z"
       style="fill:#6f8c71;stroke-width:0.08466667" />
    <path
       inkscape:connector-curvature="0"
       id="path834"
       d="m 7.0262775,295.4759 c -4.280547,-0.93687 -6.7000001,-5.39128 -5.1584991,-9.49721 1.1896491,-3.16874 4.6658271,-5.10099 7.9772351,-4.43419 4.3691685,0.87979 6.8657095,5.36481 5.3030945,9.52698 -1.209118,3.2206 -4.752123,5.14195 -8.1218305,4.40442 z m 2.665371,-0.60645 c 2.4805495,-0.40245 4.7582115,-2.68011 5.1606585,-5.16066 0.350429,-2.15992 -0.245271,-4.11992 -1.718436,-5.65407 -2.85115,-2.96917 -7.7177455,-2.52203 -10.0055455,0.91931 -1.3883951,2.08844 -1.4176811,4.8968 -0.07298,6.9989 0.916324,1.43244 2.664283,2.63724 4.195459,2.89176 0.642768,0.10684 1.797759,0.1091 2.440848,0.005 z m -5.315609,-4.13634 -0.948096,-1.00931 v -2.12336 -2.12335 h 0.665139 0.665139 l 0.662715,0.6985 c 0.364493,0.38417 1.380202,1.43192 2.257132,2.32833 l 1.594418,1.62983 h 0.572214 0.5722155 l 0.668557,0.67251 c 0.907465,0.91282 0.885564,0.93616 -0.878252,0.93616 H 8.8792335 l -1.611777,-1.62983 c -0.886478,-0.89641 -1.794381,-1.82986 -2.017564,-2.07434 -0.223183,-0.24447 -0.438673,-0.4445 -0.478868,-0.4445 -0.04019,0 -0.07148,0.31433 -0.06953,0.6985 l 0.0035,0.6985 0.532251,0.5715 0.532251,0.5715 h 0.588016 0.588016 l 0.668558,0.67251 c 0.910654,0.91602 0.89086,0.93616 -0.920135,0.93616 H 5.3240835 Z M 10.076,289.37512 7.8004925,287.00109 h -0.600761 -0.60076 l -0.664615,-0.66854 c -0.376393,-0.37861 -0.639564,-0.70907 -0.60685,-0.762 0.03854,-0.0624 0.546579,-0.0935 1.526778,-0.0935 h 1.469015 l 1.510489,1.58562 c 0.8307675,0.87209 1.7288425,1.81507 1.9957205,2.0955 l 0.485233,0.50988 5.92e-4,-0.762 5.93e-4,-0.762 -0.559664,-0.5715 -0.559665,-0.5715 H 10.63348 10.070359 l -0.6722405,-0.67621 c -0.530803,-0.53388 -0.650449,-0.69805 -0.568501,-0.78 0.07005,-0.0701 0.540695,-0.11491 1.4478325,-0.138 l 1.344039,-0.0342 0.242393,0.24433 c 0.133317,0.13439 0.576431,0.5918 0.9847,1.01648 l 0.742307,0.77214 -0.02264,2.14723 -0.02264,2.14723 -0.597051,0.0245 -0.597051,0.0245 z m -1.9425725,-0.78653 -1.23515,-1.29117 0.358245,-0.027 0.358246,-0.027 1.124071,1.16996 c 1.3957485,1.45274 1.4046685,1.4663 0.9644,1.4663 -0.321145,0 -0.384546,-0.0521 -1.569812,-1.29116 z"
       style="fill:#5a6d5b;stroke-width:0.08466667" />
    <path
       inkscape:connector-curvature="0"
       id="path832"
       d="m 7.4476255,295.55937 c -1.009151,-0.16241 -2.252357,-0.668 -3.105037,-1.26277 -1.217859,-0.8495 -2.2543571,-2.36619 -2.7072101,-3.96143 -0.270896,-0.95427 -0.270896,-2.6659 0,-3.62017 0.452853,-1.59523 1.4893511,-3.11193 2.7072101,-3.96142 0.587606,-0.40988 1.616281,-0.89168 2.345022,-1.09834 0.969872,-0.27505 2.670795,-0.27505 3.6406665,0 0.728741,0.20666 1.757414,0.68846 2.34502,1.09834 1.217859,0.84949 2.254357,2.36619 2.70721,3.96142 0.272251,0.95904 0.270975,2.66533 -0.0027,3.63042 -0.206664,0.72874 -0.688465,1.75742 -1.098339,2.34502 -0.841491,1.20639 -2.372492,2.25836 -3.916334,2.69098 -0.7002875,0.19624 -2.2239825,0.28924 -2.9154945,0.17795 z m 2.9653175,-0.84325 c 1.792122,-0.63205 3.106809,-1.74903 3.843679,-3.26566 0.588676,-1.21161 0.643653,-1.46148 0.643653,-2.92537 0,-1.4639 -0.05498,-1.71377 -0.643653,-2.92538 -0.748572,-1.54071 -2.131404,-2.69371 -3.970679,-3.31074 -0.3729035,-0.1251 -0.7270865,-0.15622 -1.7779995,-0.15622 -1.463892,0 -1.713762,0.055 -2.925376,0.64366 -1.54071,0.74857 -2.69371,2.1314 -3.310738,3.97068 -0.2253091,0.67161 -0.2253091,2.88438 0,3.556 0.745564,2.22242 2.296829,3.7795 4.415781,4.43232 0.658519,0.20288 0.769874,0.21305 2.032,0.18563 0.943149,-0.0205 1.2891255,-0.0624 1.6933325,-0.20492 z m -5.1223325,-3.08561 c -0.06985,-0.0586 -0.518995,-0.51054 -0.998099,-1.00435 l -0.8711,-0.89783 0.0073,-1.51179 c 0.004,-0.83148 0.02978,-1.78801 0.05728,-2.12562 l 0.05,-0.61383 h 0.573862 0.573862 l 2.27196,2.32711 2.271959,2.32712 0.594653,10e-4 0.5946525,0.001 0.664614,0.66853 c 0.376393,0.37862 0.639563,0.70907 0.606849,0.762 -0.03827,0.0619 -0.534725,0.0945 -1.470933,0.0967 l -1.4131685,0.003 -2.050013,-2.0987 -2.050013,-2.0987 -0.0032,0.78158 -0.0031,0.78158 0.519142,0.55192 0.519143,0.55192 h 0.604673 0.604677 l 0.668557,0.67311 c 0.907672,0.91302 0.885194,0.93705 -0.873397,0.93347 -0.935887,-0.002 -1.360302,-0.0339 -1.450133,-0.10922 z m 6.7269325,-0.24792 c -0.126931,-0.15134 -1.125702,-1.19909 -2.2194905,-2.32834 l -1.988707,-2.05316 h -0.617282 -0.617281 l -0.578586,-0.64138 c -0.318222,-0.35275 -0.578586,-0.68613 -0.578586,-0.74083 0,-0.0713 0.403042,-0.10604 1.423695,-0.1227 l 1.423694,-0.0232 1.241226,1.29324 c 0.6826745,0.71128 1.5940885,1.65519 2.0253635,2.09757 l 0.784137,0.80434 -5.08e-4,-0.762 -5.08e-4,-0.762 -0.513762,-0.5715 -0.513763,-0.5715 h -0.608436 -0.608437 l -0.6646145,-0.66854 c -0.376393,-0.37861 -0.639564,-0.70907 -0.60685,-0.762 0.03842,-0.0622 0.533778,-0.0935 1.4794895,-0.0935 h 1.421732 l 0.901603,0.93006 0.901603,0.93006 v 2.16027 2.16027 h -0.627473 c -0.604134,0 -0.636058,-0.0102 -0.858259,-0.27516 z M 8.1462555,288.574 c -0.639272,-0.6716 -1.162312,-1.2431 -1.162312,-1.27 0,-0.0269 0.135968,-0.0489 0.30215,-0.0489 0.273847,0 0.383465,0.0852 1.170261,0.91016 0.477462,0.5006 1.012678,1.0721 1.18937,1.27 l 0.321256,0.35984 h -0.329207 c -0.313553,0 -0.384475,-0.0581 -1.491518,-1.22109 z"
       style="fill:#27532a;stroke-width:0.08466667" />
    <path
       inkscape:connector-curvature="0"
       id="path830"
       d="m 6.7299435,295.38813 c -2.516334,-0.68129 -4.429325,-2.60802 -5.0908181,-5.12738 -0.216829,-0.82581 -0.216829,-2.64552 0,-3.47133 0.6667691,-2.53945 2.5936991,-4.46638 5.1331521,-5.13315 0.825813,-0.21683 2.64552,-0.21683 3.4713325,0 2.539452,0.66677 4.466382,2.5937 5.133151,5.13315 0.216829,0.82581 0.216829,2.64552 0,3.47133 -0.666769,2.53946 -2.593699,4.46639 -5.133151,5.13316 -0.8060545,0.21164 -2.7222825,0.20849 -3.5136665,-0.006 z m 3.8421025,-0.71244 c 1.903325,-0.65442 3.419737,-2.16933 4.090548,-4.0865 0.218393,-0.62417 0.233418,-0.75702 0.233418,-2.0641 0,-1.30709 -0.01503,-1.43994 -0.233418,-2.06411 -0.670029,-1.91493 -2.175617,-3.42052 -4.090548,-4.09055 -0.6241665,-0.21839 -0.7570165,-0.23341 -2.0641025,-0.23341 -1.307085,0 -1.439936,0.015 -2.064102,0.23341 -1.914932,0.67003 -3.420521,2.17562 -4.090549,4.09055 -0.2183941,0.62417 -0.2334181,0.75702 -0.2334181,2.06411 0,1.30708 0.01502,1.43993 0.2334181,2.0641 0.336226,0.96093 0.853155,1.78128 1.581212,2.50934 0.758821,0.75882 1.592697,1.27182 2.554892,1.57177 0.388418,0.12109 0.744314,0.23444 0.790881,0.25191 0.04657,0.0175 0.656166,0.0208 1.354666,0.007 1.122207,-0.0216 1.347633,-0.0511 1.9371025,-0.25381 z m -6.1580915,-3.97044 -0.895904,-0.9525 -0.0027,-2.13783 -0.0027,-2.13783 h 0.578144 0.578144 l 2.265815,2.32833 2.265815,2.32833 h 0.600867 0.6008675 l 0.652191,0.6985 c 0.358704,0.38418 0.635084,0.72708 0.614176,0.762 -0.02091,0.0349 -0.666987,0.0635 -1.435731,0.0635 H 8.8351825 l -2.035372,-2.07371 c -1.119455,-1.14054 -2.069383,-2.0527 -2.110952,-2.027 -0.04157,0.0257 -0.07558,0.35981 -0.07558,0.74248 v 0.69578 l 0.573624,0.56922 0.573625,0.56923 0.590542,0.0107 0.590542,0.0107 0.622832,0.66013 c 0.342557,0.36307 0.597484,0.70114 0.566503,0.75127 -0.0365,0.0591 -0.542976,0.0911 -1.438708,0.0911 h -1.382379 z m 6.0289325,-1.016 c -1.0466985,-1.08267 -2.0480405,-2.13042 -2.2252015,-2.32833 -0.322093,-0.35981 -0.322149,-0.35983 -0.92808,-0.35983 h -0.605968 l -0.664614,-0.66854 c -0.376393,-0.37861 -0.639564,-0.70907 -0.60685,-0.762 0.03833,-0.062 0.523876,-0.0935 1.442873,-0.0935 h 1.385109 l 1.644946,1.7145 c 0.9047195,0.94297 1.8080225,1.89547 2.0073425,2.11666 0.199319,0.2212 0.395646,0.40217 0.436281,0.40217 0.04064,0 0.07388,-0.3466 0.07388,-0.77023 v -0.77023 l -0.564224,-0.58444 -0.564224,-0.58443 -0.599942,-0.002 -0.599942,-0.002 -0.5926665,-0.64285 c -0.325967,-0.35356 -0.592667,-0.68614 -0.592667,-0.73907 0,-0.067 0.423888,-0.10324 1.3975155,-0.11935 l 1.397514,-0.0231 0.909651,0.96917 0.909651,0.96918 v 2.12311 2.12311 h -0.578649 -0.578649 z m -1.8954595,-0.762 c -0.465571,-0.4773 -0.996497,-1.02975 -1.179837,-1.22766 l -0.333346,-0.35984 h 0.296872 c 0.272119,0 0.394103,0.10236 1.463024,1.22767 1.155259,1.2162 1.163506,1.22767 0.882964,1.22767 -0.247662,0 -0.389373,-0.10887 -1.129677,-0.86784 z"
       style="fill:#023806;stroke-width:0.08466667" />
    <path
       inkscape:connector-curvature="0"
       id="path828"
       d="m 8.5148595,291.34025 c -0.147747,-0.17462 -1.333696,-1.39007 -2.63544,-2.70099 l -2.366809,-2.38349 v -0.38934 -0.38934 h 0.580251 0.58025 l 0.872118,0.91016 c 0.479665,0.5006 1.499892,1.54835 2.26717,2.32834 l 1.395052,1.41816 h 0.562399 0.5623985 l 0.654181,0.65804 c 0.359798,0.36193 0.654179,0.70483 0.654179,0.762 0,0.0781 -0.355885,0.10396 -1.428559,0.10396 H 8.7834925 Z m 2.0618685,-1.524 c -0.9757655,-1.01282 -1.9802095,-2.06057 -2.2320965,-2.32833 l -0.457976,-0.48683 h -0.601509 -0.601509 l -0.664614,-0.66854 c -0.376393,-0.37861 -0.639564,-0.70907 -0.60685,-0.762 0.03833,-0.062 0.52387,-0.0935 1.442853,-0.0935 h 1.385089 l 1.550581,1.62983 c 0.8528175,0.89641 2.0372305,2.10608 2.6320275,2.68817 l 1.08145,1.05833 -4.24e-4,0.40217 -4.23e-4,0.40216 h -0.576214 -0.576214 l -1.77412,-1.8415 z"
       style="fill:#010101;stroke-width:0.08466667" />
  </g>
</svg>
